<svg width="37" height="43" viewBox="0 0 37 43" fill="none" xmlns="http://www.w3.org/2000/svg">
<path d="M28.0977 13.5307C28.1169 13.32 28.136 13.0901 28.136 12.8602C28.136 9.73734 25.6044 7.22759 22.4973 7.22759C21.9603 7.22759 21.4616 7.30422 20.963 7.43833C20.4068 3.41506 16.9545 0.292241 12.7542 0.292241C8.17039 0.292241 4.46878 3.98982 4.46878 8.56868V8.62615C1.95629 8.91353 0 11.0593 0 13.6457C0 16.4428 2.26316 18.7035 5.06334 18.7035H27.7908V18.6843C27.8675 18.6843 27.9443 18.7035 28.0018 18.7035C29.4211 18.7035 30.591 17.554 30.591 16.1171C30.591 14.7185 29.4786 13.5882 28.0977 13.5307Z" fill="#A7B1B9"/>
<path d="M13.5403 41.6936V35.218M23.8971 29.5472V31.2523C23.8971 33.3405 22.0175 34.7391 19.927 34.7391H9.49344C7.4029 34.7391 5.69594 33.3405 5.69594 31.2523V24.7767L2.53135 23.3207L7.59469 12.4004C7.59469 12.4004 8.36186 10.5612 8.49612 10.1972C10.5099 4.79448 15.7075 0.943633 21.8257 0.943633C29.6893 0.943633 36.0568 7.30423 36.0568 15.1592C36.0568 19.8913 33.5443 24.087 29.9769 26.6734V41.6936L23.8971 29.5472Z" stroke="#45E13D" stroke-width="1.88425"/>
</svg>
