<svg width="24" height="22" viewBox="0 0 24 22" fill="none" xmlns="http://www.w3.org/2000/svg">
<g clip-path="url(#clip0_90_3404)">
<path d="M3.70627 2.40625V18.2188C3.70627 18.4085 3.87232 18.5625 4.07692 18.5625H8.77666C9.07156 18.5625 9.35438 18.6712 9.56291 18.8645C9.77143 19.0579 9.88858 19.3202 9.88858 19.5938C9.88858 19.8673 9.77143 20.1296 9.56291 20.323C9.35438 20.5163 9.07156 20.625 8.77666 20.625H4.07692C3.38881 20.625 2.72889 20.3715 2.24233 19.9202C1.75577 19.469 1.48242 18.8569 1.48242 18.2188V2.40625C1.48242 1.078 2.64476 0 4.07692 0H16.6787C18.1109 0 19.2732 1.078 19.2732 2.40625V13.0433C19.2732 13.3168 19.1561 13.5791 18.9476 13.7725C18.739 13.9658 18.4562 14.0745 18.1613 14.0745C17.8664 14.0745 17.5836 13.9658 17.3751 13.7725C17.1665 13.5791 17.0494 13.3168 17.0494 13.0433V2.40625C17.0494 2.31508 17.0103 2.22765 16.9408 2.16318C16.8713 2.09872 16.777 2.0625 16.6787 2.0625H4.07692C3.97862 2.0625 3.88434 2.09872 3.81483 2.16318C3.74532 2.22765 3.70627 2.31508 3.70627 2.40625ZM23.3859 15.5196L16.6298 21.637C16.4201 21.8266 16.1382 21.9317 15.8453 21.9297C15.5525 21.9276 15.2723 21.8185 15.0657 21.626L12.1851 18.9447C11.9891 18.7489 11.8826 18.4902 11.8883 18.223C11.8939 17.9558 12.0111 17.7011 12.2152 17.5125C12.4193 17.3239 12.6944 17.2162 12.9825 17.212C13.2706 17.2078 13.5492 17.3075 13.7596 17.49L15.8633 19.4494L21.8322 14.0429C22.0433 13.8518 22.3277 13.7463 22.6226 13.7497C22.9176 13.753 23.1991 13.8649 23.4052 14.0608C23.6112 14.2566 23.7249 14.5203 23.7213 14.7939C23.7177 15.0675 23.597 15.3285 23.3859 15.5196ZM7.04205 5.5H13.7136C14.0085 5.5 14.2913 5.60865 14.4999 5.80205C14.7084 5.99544 14.8255 6.25775 14.8255 6.53125C14.8255 6.80475 14.7084 7.06706 14.4999 7.26045C14.2913 7.45385 14.0085 7.5625 13.7136 7.5625H7.04205C6.74715 7.5625 6.46433 7.45385 6.2558 7.26045C6.04728 7.06706 5.93013 6.80475 5.93013 6.53125C5.93013 6.25775 6.04728 5.99544 6.2558 5.80205C6.46433 5.60865 6.74715 5.5 7.04205 5.5ZM5.93013 10.6562C5.93013 10.3827 6.04728 10.1204 6.2558 9.92705C6.46433 9.73365 6.74715 9.625 7.04205 9.625H10.0072C10.3021 9.625 10.5849 9.73365 10.7934 9.92705C11.002 10.1204 11.1191 10.3827 11.1191 10.6562C11.1191 10.9298 11.002 11.1921 10.7934 11.3855C10.5849 11.5788 10.3021 11.6875 10.0072 11.6875H7.04205C6.74715 11.6875 6.46433 11.5788 6.2558 11.3855C6.04728 11.1921 5.93013 10.9298 5.93013 10.6562Z" fill="#FC6969"/>
</g>
<defs>
<clipPath id="clip0_90_3404">
<rect width="23.7211" height="22" fill="white"/>
</clipPath>
</defs>
</svg>
