<svg width="22" height="22" viewBox="0 0 22 22" fill="none" xmlns="http://www.w3.org/2000/svg">
<path d="M21.1494 10.3125V10.2352C21.1521 10.2203 21.149 10.2049 21.1408 10.1922V10.175C21.1322 10.1578 21.1322 10.1406 21.1236 10.132H21.115L19.9119 7.11563C19.8236 6.89168 19.6697 6.69964 19.4703 6.56469C19.2709 6.42974 19.0355 6.35817 18.7947 6.35938H15.6494V5.5C15.6494 5.36325 15.5951 5.2321 15.4984 5.1354C15.4017 5.0387 15.2705 4.98438 15.1338 4.98438H2.07129C1.7522 4.98438 1.44618 5.11113 1.22055 5.33676C0.994922 5.56239 0.868164 5.86841 0.868164 6.1875V15.8125C0.868164 16.1316 0.994922 16.4376 1.22055 16.6632C1.44618 16.8889 1.7522 17.0156 2.07129 17.0156H3.32598C3.44432 17.5984 3.76051 18.1224 4.22097 18.4988C4.68143 18.8751 5.25784 19.0807 5.85254 19.0807C6.44724 19.0807 7.02365 18.8751 7.48411 18.4988C7.94457 18.1224 8.26076 17.5984 8.3791 17.0156H13.6385C13.7568 17.5984 14.073 18.1224 14.5335 18.4988C14.9939 18.8751 15.5703 19.0807 16.165 19.0807C16.7597 19.0807 17.3362 18.8751 17.7966 18.4988C18.2571 18.1224 18.5733 17.5984 18.6916 17.0156H19.9463C20.2654 17.0156 20.5714 16.8889 20.797 16.6632C21.0227 16.4376 21.1494 16.1316 21.1494 15.8125V10.3125ZM18.7947 7.39062C18.8296 7.39235 18.8633 7.4037 18.8921 7.42342C18.921 7.44314 18.9438 7.47046 18.958 7.50234L19.8689 9.79688H15.6494V7.39062H18.7947ZM2.07129 6.01562H14.6182V11.8594H1.89941V6.1875C1.89941 6.14192 1.91752 6.0982 1.94976 6.06597C1.98199 6.03373 2.0257 6.01562 2.07129 6.01562ZM1.89941 15.8125V12.8906H14.6182V14.4375C14.1151 14.8175 13.767 15.3672 13.6385 15.9844H8.3791C8.26076 15.4016 7.94457 14.8776 7.48411 14.5012C7.02365 14.1249 6.44724 13.9193 5.85254 13.9193C5.25784 13.9193 4.68143 14.1249 4.22097 14.5012C3.76051 14.8776 3.44432 15.4016 3.32598 15.9844H2.07129C2.0257 15.9844 1.98199 15.9663 1.94976 15.934C1.91752 15.9018 1.89941 15.8581 1.89941 15.8125ZM5.85254 18.0469C5.5466 18.0469 5.24752 17.9562 4.99314 17.7862C4.73876 17.6162 4.54049 17.3746 4.42341 17.092C4.30633 16.8093 4.2757 16.4983 4.33539 16.1982C4.39507 15.8982 4.5424 15.6225 4.75873 15.4062C4.97507 15.1899 5.25069 15.0425 5.55076 14.9828C5.85082 14.9232 6.16185 14.9538 6.4445 15.0709C6.72716 15.188 6.96875 15.3862 7.13872 15.6406C7.30869 15.895 7.39941 16.1941 7.39941 16.5C7.39716 16.9096 7.23346 17.3017 6.94385 17.5913C6.65424 17.8809 6.2621 18.0446 5.85254 18.0469ZM16.165 18.0469C15.8591 18.0469 15.56 17.9562 15.3056 17.7862C15.0513 17.6162 14.853 17.3746 14.7359 17.092C14.6188 16.8093 14.5882 16.4983 14.6479 16.1982C14.7076 15.8982 14.8549 15.6225 15.0712 15.4062C15.2876 15.1899 15.5632 15.0425 15.8633 14.9828C16.1633 14.9232 16.4743 14.9538 16.757 15.0709C17.0397 15.188 17.2812 15.3862 17.4512 15.6406C17.6212 15.895 17.7119 16.1941 17.7119 16.5C17.7097 16.9096 17.546 17.3017 17.2564 17.5913C16.9667 17.8809 16.5746 18.0446 16.165 18.0469ZM20.1182 15.8125C20.1182 15.8581 20.1001 15.9018 20.0678 15.934C20.0356 15.9663 19.9919 15.9844 19.9463 15.9844H18.6916C18.5727 15.402 18.2563 14.8787 17.7959 14.5028C17.3355 14.127 16.7594 13.9218 16.165 13.9219C15.9919 13.922 15.8192 13.9393 15.6494 13.9734V10.8281H20.1182V15.8125Z" fill="black"/>
</svg>
