<svg width="25" height="25" viewBox="0 0 25 25" fill="none" xmlns="http://www.w3.org/2000/svg">
<path d="M9.52308 22.4849C7.80019 21.9705 6.23984 21.0188 4.99391 19.7224C5.39479 19.2469 5.64468 18.6627 5.71162 18.0444C5.77855 17.4261 5.65949 16.8019 5.36966 16.2517C5.07984 15.7014 4.63243 15.2502 4.08469 14.9557C3.53695 14.6612 2.91379 14.5368 2.29496 14.5984C2.15398 13.9079 2.08313 13.2048 2.0835 12.5C2.0835 11.4115 2.25016 10.3615 2.56058 9.375H2.60433C3.13545 9.37517 3.65786 9.23997 4.12221 8.98216C4.58657 8.72435 4.97756 8.35245 5.25825 7.90156C5.53895 7.45067 5.7001 6.93568 5.72648 6.40521C5.75286 5.87474 5.6436 5.3463 5.40902 4.86979C6.63016 3.73272 8.10696 2.90616 9.71475 2.4599C9.9764 2.97365 10.3751 3.405 10.8667 3.70623C11.3583 4.00745 11.9236 4.16681 12.5002 4.16667C13.0767 4.16681 13.6421 4.00745 14.1336 3.70623C14.6252 3.405 15.0239 2.97365 15.2856 2.4599C16.8934 2.90616 18.3702 3.73272 19.5913 4.86979C19.355 5.34964 19.2458 5.88211 19.2742 6.41623C19.3026 6.95035 19.4677 7.46824 19.7535 7.92033C20.0393 8.37242 20.4364 8.74358 20.9068 8.99827C21.3771 9.25297 21.9049 9.38269 22.4397 9.375C22.7569 10.3863 22.9178 11.4401 22.9168 12.5C22.9168 13.2188 22.8439 13.9208 22.7054 14.599C22.0865 14.5373 21.4634 14.6617 20.9156 14.9562C20.3679 15.2507 19.9205 15.702 19.6307 16.2522C19.3408 16.8024 19.2218 17.4266 19.2887 18.0449C19.3556 18.6632 19.6055 19.2475 20.0064 19.7229C18.7604 21.0191 17.2001 21.9706 15.4772 22.4849C15.2749 21.8543 14.8776 21.3043 14.3426 20.914C13.8075 20.5238 13.1624 20.3135 12.5002 20.3135C11.8379 20.3135 11.1928 20.5238 10.6578 20.914C10.1227 21.3043 9.7254 21.8543 9.52308 22.4849Z" stroke="black" stroke-width="2" stroke-linejoin="round"/>
<path d="M12.5003 16.1458C12.9791 16.1458 13.4532 16.0515 13.8955 15.8683C14.3379 15.6851 14.7398 15.4165 15.0783 15.078C15.4169 14.7394 15.6854 14.3375 15.8686 13.8952C16.0519 13.4529 16.1462 12.9788 16.1462 12.5C16.1462 12.0212 16.0519 11.5471 15.8686 11.1048C15.6854 10.6625 15.4169 10.2606 15.0783 9.92201C14.7398 9.58346 14.3379 9.31491 13.8955 9.13169C13.4532 8.94847 12.9791 8.85417 12.5003 8.85417C11.5334 8.85417 10.6061 9.23828 9.92233 9.92201C9.23861 10.6057 8.85449 11.5331 8.85449 12.5C8.85449 13.4669 9.23861 14.3943 9.92233 15.078C10.6061 15.7617 11.5334 16.1458 12.5003 16.1458Z" stroke="black" stroke-width="2" stroke-linejoin="round"/>
</svg>
