<svg width="48" height="48" viewBox="0 0 48 48" fill="none" xmlns="http://www.w3.org/2000/svg">
<path d="M24.1875 16L20.0625 22H22.8125V26L26.9375 20H24.1875V16Z" fill="#45E13D"/>
<path fill-rule="evenodd" clip-rule="evenodd" d="M33.0629 20.8487C32.8543 22.5656 32.1425 24.1885 31.0121 25.5253C30.3507 26.3087 28.6698 28.5467 28.3123 30H18.6873C18.3298 28.5453 16.6468 26.3073 15.9854 25.5233C14.8555 24.1859 14.1445 22.5625 13.9366 20.8453C13.7317 19.1318 14.0401 17.3974 14.8249 15.8493C15.617 14.2895 16.8484 12.9789 18.3765 12.0693C19.9179 11.1508 21.692 10.6652 23.5011 10.6667C25.3148 10.6667 27.0913 11.1533 28.6258 12.0713C30.1535 12.9813 31.3844 14.2921 32.176 15.852C32.9605 17.4004 33.2684 19.1351 33.0629 20.8487ZM27.3381 28.6667H19.6608C19.3679 28.0113 18.9767 27.3547 18.6123 26.7967C18.1329 26.0634 17.6114 25.3567 17.0503 24.68C16.0866 23.5398 15.4801 22.1555 15.3027 20.6913C15.1281 19.2321 15.3906 17.755 16.059 16.4367C16.7369 15.1027 17.7904 13.9822 19.0977 13.2047C20.4222 12.4156 21.9466 11.9986 23.5011 12C25.0618 12 26.588 12.4193 27.9046 13.2067C29.2114 13.9844 30.2644 15.1049 30.942 16.4387C31.61 17.7573 31.872 19.2347 31.6968 20.694C31.5188 22.1579 30.9118 23.5416 29.9478 24.6813C29.3865 25.3577 28.8652 26.0644 28.3865 26.798C28.0221 27.356 27.631 28.0113 27.3381 28.6667Z" fill="#45E13D"/>
<path d="M18.6875 32C18.6875 31.8232 18.7599 31.6536 18.8889 31.5286C19.0178 31.4036 19.1927 31.3333 19.375 31.3333H27.625C27.8073 31.3333 27.9822 31.4036 28.1111 31.5286C28.2401 31.6536 28.3125 31.8232 28.3125 32C28.3125 32.1768 28.2401 32.3464 28.1111 32.4714C27.9822 32.5964 27.8073 32.6666 27.625 32.6666H19.375C19.1927 32.6666 19.0178 32.5964 18.8889 32.4714C18.7599 32.3464 18.6875 32.1768 18.6875 32Z" fill="#45E13D"/>
<path fill-rule="evenodd" clip-rule="evenodd" d="M18.6875 34H28.3125V36C28.3125 36.3536 28.1676 36.6928 27.9098 36.9428C27.6519 37.1929 27.3022 37.3333 26.9375 37.3333H20.0625C19.6978 37.3333 19.3481 37.1929 19.0902 36.9428C18.8324 36.6928 18.6875 36.3536 18.6875 36V34ZM20.0625 35.3333H26.9375V36H20.0625V35.3333Z" fill="#45E13D"/>
<rect opacity="0.05" width="48" height="48" rx="8" fill="#5364BE"/>
</svg>
