<svg width="26" height="24" viewBox="0 0 26 24" fill="none" xmlns="http://www.w3.org/2000/svg">
<path d="M14.0169 3C11.4432 3 8.97495 3.94821 7.15508 5.63604C5.33521 7.32387 4.31282 9.61305 4.31282 12H1.07812L5.27244 15.89L5.34792 16.03L9.70397 12H6.46928C6.46928 8.13 9.84414 5 14.0169 5C18.1897 5 21.5645 8.13 21.5645 12C21.5645 15.87 18.1897 19 14.0169 19C11.9359 19 10.049 18.21 8.69044 16.94L7.15935 18.36C8.05796 19.198 9.12657 19.8627 10.3035 20.3158C11.4805 20.769 12.7426 21.0015 14.0169 21C16.5906 21 19.0589 20.0518 20.8787 18.364C22.6986 16.6761 23.721 14.3869 23.721 12C23.721 9.61305 22.6986 7.32387 20.8787 5.63604C19.0589 3.94821 16.5906 3 14.0169 3ZM12.9387 8V13L17.5212 15.52L18.3514 14.23L14.556 12.14V8H12.9387Z" fill="#1D1D34"/>
</svg>
