<svg width="21" height="25" viewBox="0 0 21 25" fill="none" xmlns="http://www.w3.org/2000/svg">
<path d="M5.96534 23.9378L6.39476 21.2102L5.4382 21.188H0.87056L4.04484 1.06096C4.05429 0.999459 4.08552 0.943406 4.13285 0.903014C4.18017 0.862621 4.24044 0.84058 4.30266 0.840908H12.0043C14.5612 0.840908 16.3257 1.37297 17.2469 2.42312C17.6788 2.91577 17.9539 3.43058 18.0869 3.99712C18.2265 4.59158 18.2289 5.30181 18.0926 6.16805L18.0828 6.23127V6.78632L18.5147 7.031C18.8444 7.19804 19.1407 7.424 19.3891 7.69771C19.7586 8.11892 19.9975 8.65426 20.0985 9.28896C20.2028 9.94171 20.1683 10.7184 19.9975 11.5978C19.8005 12.6094 19.4819 13.4904 19.0516 14.2113C18.672 14.8571 18.1616 15.4165 17.5532 15.8535C16.9817 16.2591 16.3027 16.567 15.535 16.764C14.7911 16.9578 13.9429 17.0555 13.0126 17.0555H12.4132C11.9846 17.0555 11.5684 17.2099 11.2416 17.4866C10.9152 17.7662 10.6988 18.1526 10.6307 18.577L10.5855 18.8225L9.82685 23.6299L9.79237 23.8064C9.78334 23.8622 9.76774 23.8901 9.74475 23.909C9.72248 23.9272 9.69469 23.9374 9.66592 23.9378H5.96534Z" fill="#253B80"/>
<path d="M18.9237 6.2956C18.9007 6.44257 18.8744 6.59283 18.8448 6.74719C17.8292 11.9618 14.3544 13.7633 9.91646 13.7633H7.65686C7.11413 13.7633 6.65679 14.1574 6.57222 14.6927L5.41532 22.0299L5.08771 24.1097C5.07466 24.1922 5.07964 24.2765 5.10232 24.3569C5.12499 24.4373 5.16481 24.5118 5.21905 24.5753C5.27328 24.6388 5.34064 24.6898 5.41648 24.7248C5.49232 24.7598 5.57484 24.778 5.65836 24.778H9.66603C10.1406 24.778 10.5438 24.4332 10.6185 23.9652L10.6579 23.7615L11.4125 18.973L11.4609 18.7103C11.5348 18.2406 11.9388 17.8958 12.4133 17.8958H13.0127C16.8956 17.8958 19.9352 16.3193 20.8236 11.7574C21.1948 9.85168 21.0026 8.26044 20.0206 7.14131C19.7094 6.79511 19.3376 6.50853 18.9237 6.2956Z" fill="#179BD7"/>
<path d="M17.8614 5.87154C17.5371 5.77772 17.2072 5.7045 16.8736 5.65231C16.2146 5.55102 15.5485 5.50243 14.8817 5.50698H8.84516C8.61543 5.5068 8.39322 5.58882 8.21868 5.7382C8.04415 5.88759 7.92882 6.09448 7.89354 6.32149L6.60938 14.4551L6.57243 14.6924C6.61243 14.4334 6.74379 14.1974 6.94273 14.0269C7.14168 13.8564 7.39507 13.7628 7.65707 13.7629H9.91667C14.3546 13.7629 17.8294 11.9606 18.845 6.74681C18.8754 6.59244 18.9009 6.44219 18.9239 6.29521C18.6559 6.15467 18.3765 6.03684 18.0888 5.94297C18.0134 5.91795 17.9376 5.89413 17.8614 5.87154Z" fill="#222D65"/>
<path d="M7.89375 6.32146C7.92873 6.09439 8.044 5.8874 8.21862 5.73809C8.39324 5.58878 8.61562 5.50706 8.84537 5.50778H14.8819C15.5971 5.50778 16.2646 5.55458 16.8739 5.65311C17.2861 5.7179 17.6927 5.81481 18.0899 5.94295C18.3896 6.0423 18.6679 6.15971 18.9249 6.29519C19.2271 4.36812 18.9224 3.05604 17.8805 1.86795C16.7318 0.559974 14.6586 0 12.0057 0H4.304C3.76209 0 3.29983 0.394116 3.21608 0.930279L0.00813662 21.2642C-0.00680544 21.3586 -0.00112049 21.4551 0.0248004 21.5471C0.0507213 21.6391 0.096263 21.7244 0.158293 21.7972C0.220322 21.8699 0.297368 21.9283 0.38413 21.9684C0.470892 22.0085 0.565311 22.0293 0.660892 22.0295H5.41574L6.60959 14.455L7.89375 6.32146Z" fill="#253B80"/>
</svg>
