<svg width="32" height="28" viewBox="0 0 32 28" fill="none" xmlns="http://www.w3.org/2000/svg">
<path d="M14.1136 1.76728C13.8664 1.76651 13.6185 1.76673 13.3698 1.76766C12.1732 1.77253 10.9573 1.80004 9.73115 1.83985L10.0859 3.20119C11.3628 3.07486 12.7628 2.98079 14.1626 2.93376C14.921 2.90828 15.6747 2.89483 16.4058 2.89822C18.5993 2.90822 20.5894 3.06939 21.8915 3.51083L22.4482 3.69972L22.1997 4.17468C20.3833 7.64651 19.9633 10.996 20.2479 14.2823C20.3884 10.3821 22.2412 6.91321 24.6735 2.46613C21.3638 1.98488 17.8214 1.77805 14.1136 1.76722V1.76728ZM15.8657 3.88861C15.3195 3.88899 14.7626 3.89867 14.2058 3.91737C11.6013 4.00487 9.00584 4.27229 7.31428 4.57887C9.20384 7.64569 10.7324 10.7196 11.7195 13.7162C11.8422 13.7126 11.9651 13.7134 12.0878 13.7186C12.339 13.7294 12.5873 13.7592 12.83 13.8056C11.8253 10.9948 10.681 8.40246 9.2584 5.81404L8.93696 5.22922L9.66734 5.11612C11.5021 4.83186 13.3958 4.72183 15.1982 4.72133C15.3183 4.72133 15.4382 4.72172 15.5575 4.72265C16.7027 4.7314 17.8065 4.78324 18.8291 4.86128L19.52 4.91405L19.3185 5.49467C18.1497 8.8614 17.9208 12.4771 18.5816 15.9171C18.5926 15.926 18.6037 15.9349 18.6145 15.9439C18.8528 15.8709 19.0757 15.7964 19.2835 15.7167C18.7677 12.0311 18.9962 8.22877 20.9228 4.27607C19.8477 4.03637 18.2088 3.91108 16.4079 3.8914C16.2272 3.88944 16.0464 3.88847 15.8657 3.88861ZM24.9248 4.29247C22.99 7.87757 21.6158 10.7505 21.3906 13.852C22.643 10.1988 25.0637 6.92393 27.8221 4.81994C26.8646 4.61096 25.8981 4.435 24.9248 4.29247ZM6.48971 5.30578C5.31721 5.51731 4.17184 5.78583 3.06396 6.15683C3.60309 6.56589 4.57772 7.32686 5.76022 8.33826C6.30447 7.84809 6.85953 7.36383 7.43847 6.92349C7.13183 6.37998 6.81554 5.84067 6.48971 5.30578ZM15.3662 5.71495C14.5149 5.71134 13.6435 5.73267 12.769 5.78566C12.6773 6.5339 12.1715 7.2339 11.5675 7.9223C12.5319 9.9167 13.3648 11.9518 14.1147 14.1126C15.2632 14.409 16.3993 14.7594 17.3197 15.1792C16.9778 12.8573 17.0246 10.4781 17.4685 8.15144C16.6632 7.42355 16.2437 6.61527 16.21 5.7266C15.9288 5.72004 15.6475 5.71616 15.3662 5.71495ZM26.7423 7.19069C25.1967 8.79304 23.8347 10.7999 22.9067 12.9828C24.6107 10.8619 26.706 9.20757 28.9365 8.03901C28.2098 7.74694 27.4783 7.46413 26.7423 7.19069ZM7.94603 7.8447C7.0339 8.56592 6.13265 9.43157 5.19409 10.2563C7.21215 11.3058 8.93103 12.5486 10.3332 13.9564C10.4203 13.9276 10.5082 13.9018 10.5967 13.8782C9.94053 11.9042 9.04134 9.88422 7.94603 7.8447ZM22.5327 14.6671C21.5079 15.7492 20.5431 16.3206 19.2146 16.7764C19.364 17.2806 19.1421 17.8595 18.6312 18.3022C18.3307 18.5626 17.9531 18.8594 17.401 19.0522C17.4806 19.0935 17.5619 19.1323 17.6447 19.1686C18.4175 19.506 19.7827 19.3972 21.051 18.8925C22.3153 18.3893 23.4448 17.5202 23.8635 16.6398C24.0733 16.1449 23.9235 15.8868 23.5562 15.5082C23.2947 15.2389 22.9127 14.9674 22.5327 14.6671V14.6671ZM11.9028 14.6991C11.2331 14.6938 10.553 14.8629 9.9909 15.2329C9.19153 15.7591 8.57528 16.6976 8.56978 18.2918V18.3027L8.56915 18.3136C8.38665 21.6704 8.66915 23.2191 9.22884 24.0594C9.72284 24.8011 10.5445 25.1561 11.7463 25.8091C11.8036 25.6775 11.8632 25.5157 11.9192 25.3115C12.0615 24.792 12.1792 24.0786 12.2538 23.2894C12.4032 21.7113 12.3813 19.8162 12.1317 18.4526L11.9997 17.7313L12.8132 17.8951C14.7892 18.2928 15.9195 18.3398 16.5757 18.2385C17.2321 18.1371 17.4545 17.9365 17.8395 17.6028C18.2014 17.2893 18.1947 17.1765 18.118 17.0001C18.0413 16.8236 17.7337 16.5328 17.2118 16.2545C16.1678 15.698 14.394 15.1821 12.7359 14.7973C12.464 14.7343 12.1841 14.7013 11.9028 14.6991ZM23.7215 18.4953C23.0957 19.0287 22.3256 19.4666 21.5167 19.7885C20.2053 20.3103 18.7628 20.549 17.566 20.2016C17.1435 20.3392 16.8981 20.4973 16.7743 20.6281C16.6044 20.8077 16.5938 20.9398 16.6513 21.1291C16.7088 21.3183 16.8804 21.5429 17.0925 21.7046C17.3046 21.8662 17.5567 21.9502 17.6525 21.9542C20.5771 22.0757 21.8428 21.3413 23.4198 20.4895C23.8797 20.2411 24.0557 19.7379 24.0116 19.2355C23.9895 18.9842 23.906 18.7481 23.8095 18.5994C23.7856 18.5615 23.756 18.5265 23.7215 18.4953ZM13.3348 18.9927C13.5053 20.3637 13.5081 21.963 13.375 23.3706C13.297 24.1949 13.1765 24.9445 13.0132 25.5409C12.9421 25.8005 12.8639 26.0306 12.7694 26.2332L21.938 25.8797C21.8345 25.5434 21.729 25.2057 21.6235 24.8678C21.2713 24.9704 20.9112 25.0513 20.546 25.1098L20.5488 25.1497L20.029 25.178C19.709 25.2116 19.3758 25.2301 19.0301 25.2323L13.7888 25.5172L13.9447 24.8824C14.4413 22.8587 14.4872 21.0768 14.1808 19.1274C13.8978 19.0874 13.6158 19.0424 13.3348 18.9927H13.3348ZM15.3331 19.2489C15.5798 20.9952 15.5502 22.6619 15.1827 24.4552L16.3867 24.3897C16.1979 24.146 16.0682 23.8709 16.0055 23.5816C15.9245 23.2053 15.9695 22.7865 16.2508 22.4402C16.2633 22.4249 16.2767 22.4102 16.29 22.3953C15.9622 22.1304 15.6883 21.7904 15.5642 21.3823C15.432 20.9479 15.5145 20.416 15.9077 20.0004C16.0377 19.8631 16.1947 19.7392 16.3792 19.6276C16.216 19.5139 16.073 19.3933 15.9495 19.2677C15.758 19.2688 15.553 19.2626 15.3331 19.2489ZM23.6247 21.534C22.1587 22.3135 20.5116 23.0585 17.5991 22.9375C17.504 22.9335 17.4096 22.9222 17.3167 22.9039C17.2397 22.9341 17.1985 22.9726 17.1678 23.0104C17.1077 23.0845 17.0721 23.2182 17.111 23.3994C17.189 23.7618 17.5813 24.1589 17.9467 24.1961C20.5332 24.4593 22.3203 23.7189 23.4055 22.8575C23.9055 22.4606 23.9097 22.2067 23.8361 21.9305C23.7992 21.7925 23.718 21.6588 23.6247 21.534ZM23.207 24.2171C23.0334 24.3123 22.8552 24.401 22.6728 24.4829C22.776 24.8138 22.8793 25.1447 22.9814 25.4757L24.2264 25.2803C23.9052 25.0404 23.6538 24.7907 23.452 24.5423C23.3619 24.4313 23.2825 24.3235 23.207 24.2171Z" fill="#45E13D"/>
</svg>
