<svg width="24" height="24" viewBox="0 0 24 24" fill="none" xmlns="http://www.w3.org/2000/svg">
<path d="M5 5H7V6C7 7.1 7.9 8 9 8H15C16.1 8 17 7.1 17 6V5H19V10H21V5C21 3.9 20.1 3 19 3H14.82C14.4 1.84 13.3 1 12 1C10.7 1 9.6 1.84 9.18 3H5C3.9 3 3 3.9 3 5V19C3 20.1 3.9 21 5 21H11V19H5V5ZM12 3C12.55 3 13 3.45 13 4C13 4.55 12.55 5 12 5C11.45 5 11 4.55 11 4C11 3.45 11.45 3 12 3Z" fill="#37C6F7"/>
<path d="M21.7499 12.25C21.3399 11.84 20.6599 11.84 20.2499 12.25L15.5099 17L13.2499 14.75C12.8399 14.34 12.1699 14.34 11.7499 14.75C11.3399 15.16 11.3399 15.84 11.7499 16.25L14.7999 19.29C15.1899 19.68 15.8199 19.68 16.2099 19.29L21.7399 13.75C22.1599 13.34 22.1599 12.66 21.7499 12.25Z" fill="#37C6F7"/>
</svg>
