<svg width="20" height="22" viewBox="0 0 20 22" fill="none" xmlns="http://www.w3.org/2000/svg">
<g clip-path="url(#clip0_90_3393)">
<path d="M18.75 2.06023L13.7456 2.06025V0.690063C13.7456 0.31022 13.4659 0.00256348 13.1206 0.00256348C12.7753 0.00256348 12.4956 0.31022 12.4956 0.690063V2.05991H7.49563V0.690063C7.49563 0.31022 7.21594 0.00256348 6.87063 0.00256348C6.52531 0.00256348 6.24563 0.31022 6.24563 0.690063V2.05991H1.25C0.559687 2.05991 0 2.67556 0 3.43491V20.6224C0 21.3817 0.559687 21.9974 1.25 21.9974H18.75C19.4403 21.9974 20 21.3817 20 20.6224V3.43491C20 2.67589 19.4403 2.06023 18.75 2.06023ZM18.75 20.6224H1.25V3.43491H6.24563V4.12756C6.24563 4.50739 6.52531 4.81506 6.87063 4.81506C7.21594 4.81506 7.49563 4.50739 7.49563 4.12756V3.43525H12.4956V4.12791C12.4956 4.50775 12.7753 4.81541 13.1206 4.81541C13.4659 4.81541 13.7456 4.50775 13.7456 4.12791V3.43525H18.75V20.6224ZM14.375 10.9977H15.625C15.97 10.9977 16.25 10.6897 16.25 10.3102V8.93523C16.25 8.55573 15.97 8.24773 15.625 8.24773H14.375C14.03 8.24773 13.75 8.55573 13.75 8.93523V10.3102C13.75 10.6897 14.03 10.9977 14.375 10.9977ZM14.375 16.4974H15.625C15.97 16.4974 16.25 16.1897 16.25 15.8099V14.4349C16.25 14.0554 15.97 13.7474 15.625 13.7474H14.375C14.03 13.7474 13.75 14.0554 13.75 14.4349V15.8099C13.75 16.1901 14.03 16.4974 14.375 16.4974ZM10.625 13.7474H9.375C9.03 13.7474 8.75 14.0554 8.75 14.4349V15.8099C8.75 16.1897 9.03 16.4974 9.375 16.4974H10.625C10.97 16.4974 11.25 16.1897 11.25 15.8099V14.4349C11.25 14.0557 10.97 13.7474 10.625 13.7474ZM10.625 8.24773H9.375C9.03 8.24773 8.75 8.55573 8.75 8.93523V10.3102C8.75 10.6897 9.03 10.9977 9.375 10.9977H10.625C10.97 10.9977 11.25 10.6897 11.25 10.3102V8.93523C11.25 8.55538 10.97 8.24773 10.625 8.24773ZM5.625 8.24773H4.375C4.03 8.24773 3.75 8.55573 3.75 8.93523V10.3102C3.75 10.6897 4.03 10.9977 4.375 10.9977H5.625C5.97 10.9977 6.25 10.6897 6.25 10.3102V8.93523C6.25 8.55538 5.97 8.24773 5.625 8.24773ZM5.625 13.7474H4.375C4.03 13.7474 3.75 14.0554 3.75 14.4349V15.8099C3.75 16.1897 4.03 16.4974 4.375 16.4974H5.625C5.97 16.4974 6.25 16.1897 6.25 15.8099V14.4349C6.25 14.0557 5.97 13.7474 5.625 13.7474Z" fill="#45E13D"/>
</g>
<defs>
<clipPath id="clip0_90_3393">
<rect width="20" height="22" fill="white"/>
</clipPath>
</defs>
</svg>
