<svg width="20" height="20" viewBox="0 0 20 20" fill="none" xmlns="http://www.w3.org/2000/svg">
<path d="M3.33301 5.83325V4.99992C3.33301 4.55789 3.5086 4.13397 3.82116 3.82141C4.13372 3.50885 4.55765 3.33325 4.99967 3.33325H6.66634" stroke="#AB92F0" stroke-width="2" stroke-linecap="round" stroke-linejoin="round"/>
<path d="M3.33301 14.1665V14.9998C3.33301 15.4419 3.5086 15.8658 3.82116 16.1783C4.13372 16.4909 4.55765 16.6665 4.99967 16.6665H6.66634" stroke="#AB92F0" stroke-width="2" stroke-linecap="round" stroke-linejoin="round"/>
<path d="M13.333 3.33325H14.9997C15.4417 3.33325 15.8656 3.50885 16.1782 3.82141C16.4907 4.13397 16.6663 4.55789 16.6663 4.99992V5.83325" stroke="#AB92F0" stroke-width="2" stroke-linecap="round" stroke-linejoin="round"/>
<path d="M13.333 16.6665H14.9997C15.4417 16.6665 15.8656 16.4909 16.1782 16.1783C16.4907 15.8658 16.6663 15.4419 16.6663 14.9998V14.1665" stroke="#AB92F0" stroke-width="2" stroke-linecap="round" stroke-linejoin="round"/>
<path d="M4.16602 10H15.8327" stroke="#AB92F0" stroke-width="2" stroke-linecap="round" stroke-linejoin="round"/>
</svg>
