<svg width="35" height="35" viewBox="0 0 35 35" fill="none" xmlns="http://www.w3.org/2000/svg">
<path d="M28.4944 35H6.50558C2.86245 35 0 32.1376 0 28.4944V6.50557C0 2.86245 2.86245 0 6.50558 0H28.4944C32.1375 0 35 2.86245 35 6.50557V28.4944C35 32.1376 32.0074 35 28.4944 35Z" fill="#1D1F34"/>
<path fill-rule="evenodd" clip-rule="evenodd" d="M13.2667 8.65443C13.0673 8.72418 12.8931 8.84421 12.7894 8.98342C12.6294 9.19814 12.5951 9.37641 12.5951 9.99311V10.5598L11.8326 10.5601C11.1075 10.5604 11.0612 10.5643 10.8886 10.6397C10.7889 10.6832 10.6485 10.7833 10.5766 10.862C10.3581 11.1014 10.3345 11.2165 10.3345 12.0418C10.3345 12.7292 10.3388 12.7767 10.4088 12.8603C10.5117 12.9829 10.6955 12.9829 10.7983 12.8603C10.8682 12.777 10.8727 12.7289 10.8727 12.0678C10.8727 11.0371 10.8447 11.0645 11.8936 11.0645H12.5951V11.3108C12.5951 11.7795 12.7837 12.1037 13.1493 12.2633C13.4943 12.414 13.9567 12.3497 14.2221 12.1141C14.4137 11.9441 14.5057 11.7199 14.525 11.3758L14.5425 11.0645H15.5424H16.5422V11.3108C16.5422 11.6313 16.6165 11.8572 16.7816 12.038C17.2341 12.5338 18.1186 12.4098 18.3941 11.812C18.4258 11.7431 18.4602 11.5476 18.4706 11.3758L18.4897 11.0645H19.4846H20.4795L20.4985 11.3758C20.509 11.5476 20.5433 11.7431 20.5751 11.812C20.8506 12.4098 21.7351 12.5338 22.1876 12.038C22.3526 11.8572 22.427 11.6313 22.427 11.3108V11.0645H23.1285C23.6853 11.0645 23.8517 11.0751 23.9352 11.1156C24.1643 11.2267 24.1494 10.8377 24.1494 16.6933V22.0226L24.2324 22.0958C24.3427 22.1929 24.5096 22.1908 24.6096 22.091L24.6876 22.0131V16.6626C24.6876 10.7185 24.7055 11.1469 24.4454 10.862C24.3736 10.7833 24.2332 10.6832 24.1334 10.6397C23.961 10.5644 23.9144 10.5604 23.1923 10.5601L22.4326 10.5598L22.4208 9.92887C22.4077 9.22543 22.3749 9.10291 22.1416 8.88405C21.9376 8.69282 21.7617 8.6265 21.4581 8.6265C21.1546 8.6265 20.9786 8.69282 20.7747 8.88405C20.5413 9.10291 20.5086 9.22543 20.4955 9.92887L20.4837 10.5598H19.4846H18.4855L18.4737 9.92887C18.4606 9.22543 18.4278 9.10291 18.1945 8.88405C17.9905 8.69282 17.8146 8.6265 17.511 8.6265C17.2075 8.6265 17.0315 8.69282 16.8276 8.88405C16.5942 9.10291 16.5615 9.22543 16.5484 9.92887L16.5366 10.5598H15.5375H14.5383L14.5266 9.92887C14.5134 9.22543 14.4807 9.10291 14.2473 8.88405C13.9969 8.64921 13.5685 8.54887 13.2667 8.65443ZM13.7423 9.15591C13.791 9.17906 13.8677 9.24922 13.9127 9.31181C13.9935 9.42423 13.9945 9.43883 13.9945 10.4649C13.9945 11.5896 13.9827 11.6709 13.8033 11.7811C13.672 11.8618 13.4177 11.8558 13.3005 11.7694C13.1422 11.6526 13.128 11.532 13.1401 10.4026L13.1513 9.35373L13.241 9.26328C13.3894 9.11361 13.5711 9.07468 13.7423 9.15591ZM17.6894 9.15591C17.7381 9.17906 17.8148 9.24922 17.8598 9.31181C17.9406 9.42423 17.9416 9.43883 17.9416 10.4649C17.9416 11.5896 17.9298 11.6709 17.7504 11.7811C17.6321 11.8539 17.373 11.8552 17.264 11.7836C17.0932 11.6714 17.0804 11.5797 17.0804 10.4649C17.0804 9.43883 17.0815 9.42423 17.1622 9.31181C17.2965 9.12505 17.4984 9.06532 17.6894 9.15591ZM21.6365 9.15591C21.6852 9.17906 21.7619 9.24922 21.8069 9.31181C21.8877 9.42423 21.8887 9.43883 21.8887 10.4649C21.8887 11.5797 21.876 11.6714 21.7051 11.7836C21.5961 11.8552 21.3371 11.8539 21.2187 11.7811C21.0394 11.6709 21.0275 11.5896 21.0275 10.4649C21.0275 9.43883 21.0286 9.42423 21.1094 9.31181C21.2436 9.12505 21.4455 9.06532 21.6365 9.15591ZM10.4893 13.6551C10.4462 13.6717 10.3937 13.7156 10.3727 13.7524C10.3461 13.799 10.3345 15.5308 10.3345 19.4519C10.3345 25.8106 10.3096 25.2782 10.6198 25.5691C10.9306 25.8606 10.3166 25.8367 17.511 25.8367C24.7055 25.8367 24.0915 25.8606 24.4023 25.5691C24.6753 25.3131 24.6876 25.2481 24.6876 24.0619C24.6876 23.4593 24.6732 23.0141 24.6525 22.9778C24.5695 22.8324 24.234 22.8425 24.1727 22.9923C24.1598 23.0237 24.1494 23.4955 24.1494 24.0409C24.1494 24.8614 24.14 25.0495 24.0949 25.1312C23.9762 25.3466 24.4552 25.332 17.511 25.332C11.933 25.332 11.1797 25.326 11.0868 25.2809C10.8575 25.1697 10.8727 25.5878 10.8727 19.415C10.8727 14.1141 10.8691 13.7937 10.8099 13.728C10.7347 13.6447 10.597 13.6134 10.4893 13.6551ZM14.8368 13.6878C14.7968 13.7028 14.4352 14.0882 14.0332 14.5441C13.6312 15 13.2937 15.365 13.2832 15.3552C13.2727 15.3454 13.1822 15.2201 13.0821 15.0769C12.9149 14.8377 12.8893 14.8156 12.7676 14.8061C12.6069 14.7936 12.4874 14.888 12.4874 15.0274C12.4874 15.0849 12.5993 15.2923 12.7791 15.5683C13.0961 16.0548 13.1767 16.1208 13.3537 16.0385C13.4347 16.0009 13.9794 15.4067 14.9522 14.2949C15.2198 13.9891 15.2517 13.9 15.1364 13.7808C15.0393 13.6805 14.9391 13.6493 14.8368 13.6878ZM16.0755 14.6292C15.3221 14.8441 15.214 15.77 15.9045 16.0927L16.0898 16.1793H19.0838C21.3383 16.1793 22.1143 16.1691 22.2255 16.1382C22.4197 16.0841 22.6843 15.8359 22.742 15.6538C22.8442 15.3308 22.7329 14.9608 22.4787 14.7791C22.2219 14.5954 22.2625 14.5975 19.0931 14.6006C17.4829 14.6022 16.1249 14.6151 16.0755 14.6292ZM22.0795 15.1416C22.269 15.2363 22.3076 15.4531 22.1595 15.5919L22.0714 15.6745H19.1126H16.1539L16.0578 15.5675C15.9832 15.4844 15.9665 15.438 15.983 15.3604C16.0083 15.242 16.064 15.1726 16.1642 15.1345C16.2853 15.0885 21.9868 15.0954 22.0795 15.1416ZM14.8368 17.0191C14.7968 17.0341 14.4352 17.4195 14.0332 17.8754C13.6312 18.3313 13.2937 18.6963 13.2832 18.6865C13.2727 18.6767 13.1822 18.5514 13.0821 18.4082C12.9149 18.169 12.8893 18.1469 12.7676 18.1375C12.6069 18.1249 12.4874 18.2193 12.4874 18.3587C12.4874 18.4162 12.5993 18.6236 12.7791 18.8996C13.0963 19.3865 13.1763 19.4519 13.3546 19.3698C13.4327 19.3339 14.0934 18.611 15.0412 17.5245C15.2197 17.3198 15.2424 17.2216 15.1364 17.1121C15.0393 17.0118 14.9391 16.9806 14.8368 17.0191ZM16.1654 17.9515C15.8551 18.0189 15.6544 18.151 15.5397 18.3633C15.3248 18.761 15.4963 19.2555 15.9128 19.4391C16.0741 19.5103 16.0898 19.5106 19.1164 19.5099C22.0027 19.5091 22.1652 19.5059 22.3014 19.4467C22.6012 19.3162 22.7864 19.0414 22.785 18.7293C22.7837 18.4247 22.6178 18.176 22.3149 18.0245L22.1579 17.9459L19.1975 17.9409C17.5693 17.9382 16.2049 17.9429 16.1654 17.9515ZM22.161 18.545C22.2741 18.6684 22.2735 18.8163 22.1595 18.9232L22.0714 19.0058H19.1094C16.2081 19.0058 16.146 19.0045 16.0766 18.9394C15.9826 18.8512 15.9557 18.738 16.0017 18.6245C16.0801 18.431 16.008 18.4352 19.1737 18.4432L22.0744 18.4506L22.161 18.545ZM14.8266 20.3748C14.8008 20.3845 14.4552 20.758 14.0587 21.2049C13.6622 21.6518 13.3266 22.0296 13.3128 22.0443C13.2991 22.0591 13.2093 21.9503 13.1134 21.8026C12.891 21.4601 12.7658 21.3964 12.582 21.532C12.4262 21.6469 12.4543 21.7584 12.7549 22.2179C13.0711 22.7013 13.1203 22.7495 13.2824 22.7349C13.3913 22.7251 13.4832 22.6338 14.2748 21.7483C14.7545 21.2116 15.1626 20.7364 15.1817 20.6923C15.2661 20.4972 15.0397 20.2948 14.8266 20.3748ZM15.9142 21.3623C15.6051 21.5037 15.3986 21.8663 15.4487 22.1797C15.5005 22.5037 15.7745 22.7728 16.1214 22.8403C16.2539 22.8661 17.2058 22.8746 19.235 22.8681L22.1579 22.8587L22.3149 22.7802C22.6178 22.6286 22.7837 22.3799 22.785 22.0753C22.7864 21.7632 22.6012 21.4884 22.3014 21.358C22.1651 21.2986 22.0042 21.2955 19.1078 21.2961C16.1572 21.2967 16.0531 21.2988 15.9142 21.3623ZM22.1595 21.8814C22.2735 21.9883 22.2741 22.1362 22.161 22.2596L22.0744 22.354L19.183 22.363C16.7059 22.3707 16.2736 22.3649 16.1655 22.3226C15.9584 22.2414 15.9148 22.0169 16.0766 21.8652C16.146 21.8001 16.2081 21.7988 19.1094 21.7988H22.0714L22.1595 21.8814Z" fill="white"/>
</svg>
