<svg width="26" height="26" viewBox="0 0 26 26" fill="none" xmlns="http://www.w3.org/2000/svg">
<path d="M20.5833 7.58332C20.5833 7.79999 20.5833 7.90832 20.5833 8.12499C20.475 9.74999 19.7167 11.1583 18.7417 12.1333C17.55 13.325 15.925 14.0833 14.0833 14.0833H10.725C10.1833 14.0833 9.75001 14.5167 9.64167 15.0583L8.77501 20.8C8.66667 21.2333 8.45001 21.5583 8.01667 21.6667C7.90834 21.6667 7.80001 21.6667 7.69167 21.6667H5.63334C4.98334 21.6667 4.44167 21.125 4.55001 20.3667L7.15001 4.87499C7.36667 3.35832 8.77501 2.16666 10.2917 2.16666H15.1667C18.2 2.16666 20.5833 4.54999 20.5833 7.58332Z" stroke="#5FA8EE" stroke-width="1.5" stroke-miterlimit="10"/>
<path d="M22.75 11.9167C22.75 13.4333 22.1 14.7333 21.125 15.7083C20.15 16.6833 18.85 17.3333 17.3333 17.3333H15.0583C14.5167 17.3333 14.0833 17.6583 13.975 18.2L13.2167 22.8583C13.1083 23.4 12.675 23.725 12.1333 23.725H8.88334C8.23334 23.725 7.69167 23.075 7.80001 22.425L8.01667 21.6667C8.45001 21.5583 8.77501 21.2333 8.77501 20.8L9.64167 15.0583C9.75001 14.5167 10.1833 14.0833 10.725 14.0833H14.0833C15.925 14.0833 17.55 13.325 18.6333 12.1333C19.7167 11.05 20.3667 9.64167 20.475 8.125C21.8833 8.88333 22.75 10.2917 22.75 11.9167Z" stroke="#5FA8EE" stroke-width="1.5" stroke-miterlimit="10"/>
</svg>
