<svg width="21" height="21" viewBox="0 0 21 21" fill="none" xmlns="http://www.w3.org/2000/svg">
<path d="M9.8875 16.8875C9.72708 16.7271 9.64308 16.5229 9.6355 16.275C9.6285 16.0271 9.70521 15.8229 9.86562 15.6625L14.1531 11.375H4.375C4.12708 11.375 3.91913 11.291 3.75113 11.123C3.58371 10.9556 3.5 10.7479 3.5 10.5C3.5 10.2521 3.58371 10.0441 3.75113 9.87612C3.91913 9.70871 4.12708 9.625 4.375 9.625H14.1531L9.86562 5.3375C9.70521 5.17708 9.6285 4.97292 9.6355 4.725C9.64308 4.47708 9.72708 4.27292 9.8875 4.1125C10.0479 3.95208 10.2521 3.87187 10.5 3.87187C10.7479 3.87187 10.9521 3.95208 11.1125 4.1125L16.8875 9.8875C16.975 9.96042 17.0371 10.0514 17.0739 10.1605C17.11 10.2702 17.1281 10.3833 17.1281 10.5C17.1281 10.6167 17.11 10.726 17.0739 10.8281C17.0371 10.9302 16.975 11.025 16.8875 11.1125L11.1125 16.8875C10.9521 17.0479 10.7479 17.1281 10.5 17.1281C10.2521 17.1281 10.0479 17.0479 9.8875 16.8875Z" fill="white"/>
</svg>
