<svg width="17" height="18" viewBox="0 0 17 18" fill="none" xmlns="http://www.w3.org/2000/svg">
<path d="M14.1666 8.24925H15.5833C15.5833 4.40175 12.8399 1.5 9.20117 1.5V3C12.0784 3 14.1666 5.20725 14.1666 8.24925Z" fill="#1D1D34"/>
<path d="M9.20853 6C10.6982 6 11.3335 6.67275 11.3335 8.25H12.7502C12.7502 5.83125 11.4929 4.5 9.20853 4.5V6ZM11.6325 10.0822C11.4963 9.95126 11.3175 9.8814 11.1336 9.88742C10.9498 9.89344 10.7754 9.97486 10.6472 10.1145L8.95212 11.9602C8.54412 11.8777 7.72387 11.607 6.87953 10.7152C6.0352 9.8205 5.77949 8.94975 5.7037 8.52075L7.44549 6.72525C7.57753 6.58959 7.65455 6.40486 7.66023 6.21015C7.66592 6.01544 7.59983 5.82603 7.47595 5.682L4.85866 2.63475C4.73473 2.49026 4.56249 2.40262 4.37852 2.39044C4.19454 2.37826 4.01333 2.44249 3.87337 2.5695L2.33628 3.96525C2.21382 4.09538 2.14073 4.26858 2.13087 4.452C2.12024 4.6395 1.91766 9.081 5.17032 12.5265C8.00791 15.5302 11.5623 15.75 12.5412 15.75C12.6843 15.75 12.7722 15.7455 12.7955 15.744C12.9687 15.7337 13.1322 15.656 13.2545 15.5257L14.572 13.8975C14.6921 13.7494 14.7529 13.5576 14.7415 13.3628C14.7301 13.168 14.6475 12.9856 14.5111 12.8542L11.6325 10.0822Z" fill="#1D1D34"/>
</svg>
