<svg width="20" height="20" viewBox="0 0 20 20" fill="none" xmlns="http://www.w3.org/2000/svg">
<path d="M7.70833 14.2677C8.15972 14.4825 8.56597 14.7462 8.92708 15.0587C9.28819 15.3712 9.60069 15.7227 9.86458 16.1133C10.1285 16.504 10.3264 16.9206 10.4583 17.3633C10.5903 17.806 10.6597 18.2683 10.6667 18.75H9.33333C9.33333 18.2357 9.22917 17.7507 9.02083 17.295C8.8125 16.8392 8.52778 16.4421 8.16667 16.1036C7.80556 15.765 7.37847 15.4949 6.88542 15.293C6.39236 15.0912 5.875 14.9936 5.33333 15.0001C4.77778 15.0001 4.26042 15.0977 3.78125 15.293C3.30208 15.4883 2.87847 15.7553 2.51042 16.0938C2.14236 16.4323 1.85417 16.8327 1.64583 17.295C1.4375 17.7572 1.33333 18.2422 1.33333 18.75H0C0 18.2748 0.0694444 17.8158 0.208333 17.3731C0.347222 16.9304 0.545139 16.5137 0.802083 16.1231C1.05903 15.7325 1.36806 15.3809 1.72917 15.0684C2.09028 14.7559 2.5 14.489 2.95833 14.2677C2.44444 13.9096 2.04514 13.4669 1.76042 12.9396C1.47569 12.4122 1.33333 11.8491 1.33333 11.2501C1.33333 10.7358 1.4375 10.2508 1.64583 9.79508C1.85417 9.33936 2.13889 8.94223 2.5 8.60369C2.86111 8.26515 3.28472 7.99498 3.77083 7.79316C4.25694 7.59134 4.77778 7.49368 5.33333 7.50019C5.97222 7.50019 6.57292 7.63365 7.13542 7.90058C7.69792 8.1675 8.17014 8.54184 8.55208 9.02361C8.81597 8.53533 9.15278 8.09914 9.5625 7.71503C9.97222 7.33092 10.4375 7.01517 10.9583 6.76778C10.4444 6.40971 10.0451 5.96701 9.76042 5.43968C9.47569 4.91234 9.33333 4.3492 9.33333 3.75025C9.33333 3.23593 9.4375 2.75091 9.64583 2.29519C9.85417 1.83947 10.1389 1.44234 10.5 1.1038C10.8611 0.765267 11.2847 0.495089 11.7708 0.293269C12.2569 0.0914496 12.7778 -0.00620515 13.3333 0.000305171C13.8819 0.000305171 14.3993 0.0979599 14.8854 0.293269C15.3715 0.488579 15.7951 0.755502 16.1562 1.09404C16.5174 1.43257 16.8056 1.83296 17.0208 2.29519C17.2361 2.75742 17.3403 3.24244 17.3333 3.75025C17.3333 4.3492 17.191 4.91234 16.9062 5.43968C16.6215 5.96701 16.2222 6.40971 15.7083 6.76778C16.1597 6.98262 16.566 7.24629 16.9271 7.55878C17.2882 7.87128 17.6007 8.22284 17.8646 8.61345C18.1285 9.00407 18.3264 9.42073 18.4583 9.86344C18.5903 10.3061 18.6597 10.7684 18.6667 11.2501H17.3333C17.3333 10.7358 17.2292 10.2508 17.0208 9.79508C16.8125 9.33936 16.5278 8.94223 16.1667 8.60369C15.8056 8.26515 15.3785 7.99498 14.8854 7.79316C14.3924 7.59134 13.875 7.49368 13.3333 7.50019C12.7778 7.50019 12.2604 7.59785 11.7812 7.79316C11.3021 7.98846 10.8785 8.25539 10.5104 8.59392C10.1424 8.93246 9.85417 9.33284 9.64583 9.79508C9.4375 10.2573 9.33333 10.7423 9.33333 11.2501C9.33333 11.8491 9.19097 12.4122 8.90625 12.9396C8.62153 13.4669 8.22222 13.9096 7.70833 14.2677ZM10.6667 3.75025C10.6667 4.09529 10.7361 4.41756 10.875 4.71703C11.0139 5.0165 11.2049 5.28343 11.4479 5.5178C11.691 5.75217 11.9722 5.9312 12.2917 6.0549C12.6111 6.1786 12.9583 6.2437 13.3333 6.25021C13.7014 6.25021 14.0451 6.18511 14.3646 6.0549C14.684 5.92469 14.9688 5.74566 15.2188 5.5178C15.4688 5.28994 15.6597 5.02627 15.7917 4.7268C15.9236 4.42732 15.9931 4.10181 16 3.75025C16 3.4052 15.9306 3.08294 15.7917 2.78347C15.6528 2.48399 15.4618 2.21707 15.2188 1.9827C14.9757 1.74833 14.6944 1.56929 14.375 1.4456C14.0556 1.3219 13.7083 1.2568 13.3333 1.25029C12.9653 1.25029 12.6215 1.31539 12.3021 1.4456C11.9826 1.5758 11.6979 1.75484 11.4479 1.9827C11.1979 2.21056 11.0069 2.47423 10.875 2.7737C10.7431 3.07317 10.6736 3.39869 10.6667 3.75025ZM2.66667 11.2501C2.66667 11.5952 2.73611 11.9174 2.875 12.2169C3.01389 12.5164 3.20486 12.7833 3.44792 13.0177C3.69097 13.2521 3.97222 13.4311 4.29167 13.5548C4.61111 13.6785 4.95833 13.7436 5.33333 13.7501C5.70139 13.7501 6.04514 13.685 6.36458 13.5548C6.68403 13.4246 6.96875 13.2455 7.21875 13.0177C7.46875 12.7898 7.65972 12.5262 7.79167 12.2267C7.92361 11.9272 7.99306 11.6017 8 11.2501C8 10.9051 7.93056 10.5828 7.79167 10.2834C7.65278 9.98388 7.46181 9.71695 7.21875 9.48258C6.97569 9.24821 6.69444 9.06918 6.375 8.94548C6.05556 8.82178 5.70833 8.75668 5.33333 8.75017C4.96528 8.75017 4.62153 8.81528 4.30208 8.94548C3.98264 9.07569 3.69792 9.25472 3.44792 9.48258C3.19792 9.71044 3.00694 9.97411 2.875 10.2736C2.74306 10.5731 2.67361 10.8986 2.66667 11.2501ZM18.3333 20L15.3333 17.8028L12.3333 20L13.5417 16.4844L10.6667 14.3751H14.2604L15.3333 11.2501L16.4062 14.3751H20L17.125 16.4844L18.3333 20Z" fill="#45E13D"/>
</svg>
