<svg width="46" height="38" viewBox="0 0 46 38" fill="none" xmlns="http://www.w3.org/2000/svg">
<path d="M27.9548 10.5066H31.5409V36.574H0V10.5066H2.87307" fill="#EAF4FE"/>
<path d="M10.7579 29.4018H12.1839M5.01172 14.3444H15.057H5.01172ZM10.7579 17.9305H12.1839H10.7579ZM13.6309 17.9305H15.057H13.6309ZM16.483 17.9305H17.93H16.483ZM19.3561 17.9305H20.7821H19.3561ZM22.2292 17.9305H23.6552H22.2292ZM5.01172 20.7826H6.45874H5.01172ZM7.88479 20.7826H9.31084H7.88479ZM10.7579 20.7826H12.1839H10.7579ZM13.6309 20.7826H15.057H13.6309ZM16.483 20.7826H17.93H16.483ZM19.3561 20.7826H20.7821H19.3561ZM22.2292 20.7826H23.6552H22.2292ZM5.01172 23.6556H6.45874H5.01172ZM7.88479 23.6556H9.31084H7.88479ZM10.7579 23.6556H12.1839H10.7579ZM13.6309 23.6556H15.057H13.6309ZM16.483 23.6556H17.93H16.483ZM19.3561 23.6556H20.7821H19.3561ZM22.2292 23.6556H23.6552H22.2292ZM5.01172 26.5287H6.45874H5.01172ZM7.88479 26.5287H9.31084H7.88479ZM10.7579 26.5287H12.1839H10.7579ZM13.6309 26.5287H15.057H13.6309ZM16.483 26.5287H17.93H16.483ZM19.3561 26.5287H20.7821H19.3561ZM22.2292 26.5287H23.6552H22.2292ZM5.01172 29.4018H6.45874H5.01172ZM7.88479 29.4018H9.31084H7.88479Z" stroke="#45E13D" stroke-width="1.73581"/>
<path d="M27.9548 2.87305H31.5409V10.0452H0V2.87305H2.87307" fill="#698AAE"/>
<path d="M5.01172 5.74614V0M9.31084 5.74614V0M13.6309 5.74614V0M17.93 5.74614V0M22.2292 5.74614V0M26.5283 5.74614V0M28.6883 22.5861L30.4709 24.3687L34.77 20.0695M37.2866 21.5166H45.1718M37.2866 24.3687H45.1718" stroke="#45E13D" stroke-width="1.73581"/>
<path d="M26.5293 26.5287V17.9305H35.1275M37.2876 32.9879H45.1728M37.2876 35.84H45.1728M28.6894 34.0574L30.4719 35.84L34.771 31.5408L28.6894 34.0574Z" stroke="#45E13D" stroke-width="1.73581"/>
<path d="M26.5293 38V29.4018H35.1275" stroke="#45E13D" stroke-width="1.73581"/>
</svg>
