<svg width="17" height="17" viewBox="0 0 17 17" fill="none" xmlns="http://www.w3.org/2000/svg">
<path d="M13.9184 6.40333L10.4901 6.10583L9.15132 2.95375C8.91049 2.38 8.08882 2.38 7.84799 2.95375L6.50924 6.11292L3.08799 6.40333C2.46465 6.45292 2.20965 7.23208 2.68424 7.64292L5.28382 9.89542L4.50465 13.2388C4.36299 13.8479 5.02174 14.3296 5.56007 14.0038L8.49965 12.2329L11.4392 14.0108C11.9776 14.3367 12.6363 13.855 12.4947 13.2458L11.7155 9.89542L14.3151 7.64292C14.7897 7.23208 14.5417 6.45292 13.9184 6.40333ZM8.49965 10.9083L5.83632 12.5163L6.54465 9.48458L4.19299 7.44458L7.29549 7.17542L8.49965 4.32083L9.7109 7.1825L12.8134 7.45167L10.4617 9.49167L11.1701 12.5233L8.49965 10.9083Z" fill="#45E13D"/>
</svg>
