<svg width="21" height="20" viewBox="0 0 21 20" fill="none" xmlns="http://www.w3.org/2000/svg">
<path d="M13.9381 11.5795C12.8057 13.2357 11.1475 14.0182 9.20703 14.0182C6.85021 14.0182 4.83299 12.2046 5.12248 9.79965C5.4447 7.13186 7.51613 5.98413 10.9614 5.56166C11.5761 5.48699 11.8308 5.46551 13.1576 5.3673L13.2987 5.35708V5.13715C13.2987 3.29997 12.2063 2.04586 10.7414 2.04586C9.27148 2.04586 8.24548 2.80998 7.61638 4.62977L5.68305 3.96282C6.59038 1.3339 8.38153 0 10.7414 0C13.4041 0 15.3446 2.22794 15.3446 5.13715C15.3446 7.84688 15.5113 10.0022 15.8387 10.8216C16.2028 11.734 16.3358 11.9642 16.7429 12.4715L15.1472 13.7512C14.6122 13.0843 14.3769 12.6782 13.9391 11.5806V11.5795H13.9381ZM19.6992 17.6404C19.422 17.845 18.9402 17.7233 19.1581 17.1903C19.4292 16.5275 19.7176 15.75 19.4261 15.3981C19.2113 15.1373 18.9484 15.0074 18.3755 15.0074C17.905 15.0074 17.6697 15.0688 17.3577 15.0892C17.149 15.1025 17.058 14.7854 17.2646 14.6391C17.5352 14.4453 17.8359 14.2973 18.1546 14.2013C19.331 13.8494 20.717 14.0428 20.8858 14.2862C21.2592 14.8284 20.6822 16.9141 19.6992 17.6414V17.6404ZM18.4901 16.5315C18.2245 16.7885 17.9407 17.0261 17.6411 17.2425C15.4704 18.8955 12.6594 19.7589 10.2167 19.7589C6.28555 19.7589 2.76975 17.9248 0.101949 14.8539C-0.126164 14.6187 0.0630774 14.275 0.330062 14.4611C3.20449 16.5858 6.76224 17.8706 10.4458 17.8706C12.7627 17.8706 15.2617 17.3212 17.6421 16.1387C17.8078 16.061 17.994 15.9546 18.1566 15.8789C18.5321 15.6641 18.8625 16.1919 18.4901 16.5315ZM13.309 7.40702C12.0221 7.50318 11.7787 7.52262 11.2099 7.59217C8.59941 7.91235 7.32587 8.61817 7.15402 10.0452C7.02513 11.1121 7.98259 11.9724 9.20703 11.9724C11.2928 11.9724 12.8047 10.7162 13.3213 7.40702H13.309Z" fill="#03053D"/>
</svg>
