<svg width="24" height="24" viewBox="0 0 24 24" fill="none" xmlns="http://www.w3.org/2000/svg">
<path d="M20.4849 4.6C19.3591 3.47609 17.8333 2.84485 16.2424 2.84485C14.6516 2.84485 13.1258 3.47609 11.9999 4.6C10.8716 3.48992 9.35038 2.87065 7.76756 2.8771C6.18474 2.88354 4.66858 3.51518 3.54935 4.63441C2.43012 5.75364 1.79849 7.2698 1.79204 8.85262C1.7856 10.4354 2.40486 11.9567 3.51494 13.085L11.9999 21.571L20.4849 13.086C21.6092 11.9601 22.2406 10.4341 22.2406 8.843C22.2406 7.25193 21.6092 5.7259 20.4849 4.6ZM19.0709 11.671L11.9999 18.743L4.92894 11.672C4.5228 11.2749 4.20589 10.7959 3.9993 10.2668C3.7927 9.73767 3.70116 9.17063 3.73077 8.6034C3.76038 8.03617 3.91045 7.48175 4.17101 6.97703C4.43156 6.47231 4.79662 6.02887 5.24189 5.67621C5.68716 5.32356 6.20243 5.06978 6.75341 4.93177C7.3044 4.79376 7.87846 4.77467 8.43739 4.87578C8.99632 4.9769 9.52731 5.19589 9.99502 5.51819C10.4627 5.84049 10.8564 6.2587 11.1499 6.745L11.9999 8.117L12.8499 6.745C13.0091 6.48066 13.1983 6.23569 13.4139 6.015C14.1764 5.28841 15.1892 4.88309 16.2424 4.88309C17.2957 4.88309 18.3085 5.28841 19.0709 6.015C19.4424 6.38644 19.7371 6.8274 19.9381 7.31272C20.1391 7.79803 20.2426 8.31819 20.2426 8.8435C20.2426 9.3688 20.1391 9.88896 19.9381 10.3743C19.7371 10.8596 19.4424 11.3006 19.0709 11.672V11.671Z" fill="#45E13D"/>
<path d="M13 9H11V11H9V13H11V15H13V13H15V11H13V9Z" fill="#45E13D"/>
</svg>
