<svg width="48" height="48" viewBox="0 0 48 48" fill="none" xmlns="http://www.w3.org/2000/svg">
<g clip-path="url(#clip0_118_1058)">
<path d="M27.2957 34.7222H18.6057C18.3756 34.7299 18.1464 34.6892 17.9317 34.6024C17.7169 34.5157 17.5211 34.3846 17.3557 34.2172C17.1904 34.0497 17.059 33.8492 16.9693 33.6275C16.8796 33.4059 16.8334 33.1676 16.8335 32.9269V16.105C16.851 15.6146 17.0539 15.1516 17.3976 14.8174C17.7413 14.4832 18.1978 14.3052 18.6668 14.3225H27.3568C27.5818 14.3172 27.8055 14.3598 28.0143 14.4476C28.2231 14.5354 28.4127 14.6666 28.5715 14.8333C28.7304 14.9999 28.8552 15.1986 28.9384 15.4172C29.0217 15.6358 29.0616 15.8698 29.0557 16.105V32.9269C29.055 33.1663 29.0086 33.403 28.9193 33.6234C28.8301 33.8438 28.6997 34.0434 28.5359 34.2105C28.372 34.3776 28.178 34.509 27.9651 34.5968C27.7521 34.6847 27.5246 34.7273 27.2957 34.7222ZM18.6057 15.5556C18.5349 15.553 18.4643 15.5653 18.398 15.5917C18.3318 15.618 18.2713 15.658 18.22 15.7092C18.1688 15.7604 18.1279 15.8218 18.0996 15.8897C18.0714 15.9577 18.0565 16.0309 18.0557 16.105V32.9269C18.0557 33.0744 18.1117 33.2157 18.2114 33.32C18.3111 33.4242 18.4464 33.4828 18.5874 33.4828H27.2957C27.442 33.4848 27.5835 33.4285 27.6914 33.3252C27.7993 33.2219 27.8654 33.0795 27.8763 32.9269V16.105C27.8639 15.9536 27.7972 15.8128 27.6894 15.7108C27.5817 15.6089 27.441 15.5534 27.2957 15.5556H18.6057Z" fill="#45E13D"/>
<path d="M33.0461 34.7222C32.7637 34.7248 32.4836 34.6688 32.2219 34.5575C31.9603 34.4463 31.7224 34.282 31.5218 34.0741C31.3212 33.8662 31.162 33.6188 31.0534 33.3463C30.9448 33.0737 30.8889 32.7814 30.8889 32.4861V27.6945C30.8889 27.3556 30.7601 27.0306 30.5309 26.7909C30.3017 26.5513 29.9908 26.4167 29.6666 26.4167H28.7928C28.6307 26.4167 28.4752 26.3494 28.3606 26.2295C28.246 26.1097 28.1816 25.9472 28.1816 25.7778C28.1816 25.6083 28.246 25.4458 28.3606 25.326C28.4752 25.2062 28.6307 25.1389 28.7928 25.1389H29.6666C30.3149 25.1389 30.9367 25.4081 31.3951 25.8874C31.8535 26.3667 32.1111 27.0167 32.1111 27.6945V32.4861C32.1111 32.7403 32.2077 32.984 32.3796 33.1638C32.5515 33.3435 32.7846 33.4445 33.0278 33.4445C33.2709 33.4445 33.504 33.3435 33.6759 33.1638C33.8478 32.984 33.9444 32.7403 33.9444 32.4861V24.0528L32.0316 19.5806C31.9174 19.3313 31.7379 19.1211 31.514 18.9741C31.2901 18.8271 31.031 18.7494 30.7666 18.75H30.3205C30.1585 18.75 30.003 18.6827 29.8884 18.5629C29.7738 18.4431 29.7094 18.2806 29.7094 18.1111C29.7094 17.9417 29.7738 17.7792 29.8884 17.6594C30.003 17.5395 30.1585 17.4722 30.3205 17.4722H30.7666C31.2748 17.472 31.7721 17.6257 32.1983 17.9149C32.6246 18.204 32.9615 18.6162 33.1683 19.1014L35.13 23.6758C35.1658 23.7581 35.1846 23.8474 35.185 23.9378V32.4861C35.185 33.0792 34.9596 33.6479 34.5585 34.0673C34.1574 34.4866 33.6134 34.7222 33.0461 34.7222Z" fill="#45E13D"/>
<path d="M26.0001 18.75H19.8889C19.7269 18.75 19.5714 18.6827 19.4568 18.5629C19.3422 18.4431 19.2778 18.2806 19.2778 18.1111C19.2778 17.9417 19.3422 17.7792 19.4568 17.6594C19.5714 17.5395 19.7269 17.4722 19.8889 17.4722H26.0001C26.1621 17.4722 26.3176 17.5395 26.4322 17.6594C26.5468 17.7792 26.6112 17.9417 26.6112 18.1111C26.6112 18.2806 26.5468 18.4431 26.4322 18.5629C26.3176 18.6827 26.1621 18.75 26.0001 18.75Z" fill="#45E13D"/>
<path d="M26.0001 21.3055H19.8889C19.7269 21.3055 19.5714 21.2382 19.4568 21.1184C19.3422 20.9986 19.2778 20.8361 19.2778 20.6667C19.2778 20.4972 19.3422 20.3347 19.4568 20.2149C19.5714 20.0951 19.7269 20.0278 19.8889 20.0278H26.0001C26.1621 20.0278 26.3176 20.0951 26.4322 20.2149C26.5468 20.3347 26.6112 20.4972 26.6112 20.6667C26.6112 20.8361 26.5468 20.9986 26.4322 21.1184C26.3176 21.2382 26.1621 21.3055 26.0001 21.3055Z" fill="#45E13D"/>
<path d="M30.2776 20.7178C30.1155 20.7178 29.9601 20.6505 29.8455 20.5306C29.7309 20.4108 29.6665 20.2483 29.6665 20.0789V16.2455C29.6665 16.0761 29.7309 15.9136 29.8455 15.7938C29.9601 15.674 30.1155 15.6067 30.2776 15.6067C30.4397 15.6067 30.5951 15.674 30.7097 15.7938C30.8243 15.9136 30.8887 16.0761 30.8887 16.2455V20.0789C30.8887 20.2483 30.8243 20.4108 30.7097 20.5306C30.5951 20.6505 30.4397 20.7178 30.2776 20.7178Z" fill="#45E13D"/>
</g>
<rect opacity="0.05" width="48" height="48" rx="8" fill="#5364BE"/>
<defs>
<clipPath id="clip0_118_1058">
<rect width="22" height="23" fill="white" transform="translate(15 13)"/>
</clipPath>
</defs>
</svg>
