<svg width="44" height="42" viewBox="0 0 44 42" fill="none" xmlns="http://www.w3.org/2000/svg">
<path d="M10.8106 14.8688L25.6211 14.7973L25.6897 28.9806L10.8791 29.0521L10.8106 14.8688Z" fill="#A7B1B9"/>
<path d="M25.6355 19.527L10.8047 14.8734L25.6152 14.7925L25.6355 19.527Z" fill="#B6D9EF"/>
<path d="M36.059 28.9432L25.6795 28.9934L25.611 14.8101L35.9905 14.7599L36.059 28.9432Z" fill="#698AAE"/>
<path d="M9.61993 10.1578L25.8063 10.0796L25.8292 14.8141L9.64279 14.8923L9.61993 10.1578Z" fill="#A7B1B9"/>
<path d="M37.1591 14.7532L25.8287 14.808L25.8058 10.0734L37.1363 10.0187L37.1591 14.7532Z" fill="#698AAE"/>
<path d="M13.438 2.57055L21.2479 2.53282L21.2841 10.019L13.4741 10.0567L13.438 2.57055Z" fill="#A7B1B9"/>
<path d="M21.2459 5.01999L13.436 2.55157L21.2257 2.53134L21.2459 5.01999Z" fill="#B6D9EF"/>
<path d="M26.7362 9.97446L21.2733 10.0008L21.2372 2.51464L26.7001 2.48826L26.7362 9.97446Z" fill="#698AAE"/>
<path d="M12.8023 0.0631628L21.3204 0.0220204L21.3324 2.51068L12.8143 2.55182L12.8023 0.0631628Z" fill="#A7B1B9"/>
<path d="M27.3207 2.48866L21.352 2.51748L21.34 0.0288285L27.3087 -4.80486e-07L27.3207 2.48866Z" fill="#698AAE"/>
<path d="M0 10.3413H5.54384L8.98344 29.7042H40.8099" stroke="#45E13D" stroke-width="1.07263"/>
<path d="M6.23091 15.1769H42.8931L40.1211 29.7042M40.8091 34.5399H9.34679C8.01141 34.5399 6.91883 33.4473 6.91883 32.1119C6.91883 30.7766 8.01141 29.684 9.34679 29.684H12.4627" stroke="#45E13D" stroke-width="1.07263"/>
<path d="M12.4439 41.4596C13.5949 41.4596 14.5279 40.5265 14.5279 39.3756C14.5279 38.2246 13.5949 37.2916 12.4439 37.2916C11.293 37.2916 10.3599 38.2246 10.3599 39.3756C10.3599 40.5265 11.293 41.4596 12.4439 41.4596Z" stroke="#45E13D" stroke-width="1.07263"/>
<path d="M38.0387 41.4596C39.1896 41.4596 40.1227 40.5265 40.1227 39.3756C40.1227 38.2246 39.1896 37.2916 38.0387 37.2916C36.8877 37.2916 35.9547 38.2246 35.9547 39.3756C35.9547 40.5265 36.8877 41.4596 38.0387 41.4596Z" stroke="#45E13D" stroke-width="1.07263"/>
</svg>
