<svg width="25" height="28" viewBox="0 0 25 28" fill="none" xmlns="http://www.w3.org/2000/svg">
<path d="M13.5414 18.2811H3.12479C2.84853 18.2811 2.58357 18.4015 2.38823 18.6158C2.19288 18.83 2.08313 19.1207 2.08313 19.4237C2.08313 19.7267 2.19288 20.0173 2.38823 20.2316C2.58357 20.4459 2.84853 20.5663 3.12479 20.5663H13.5414C13.8177 20.5663 14.0826 20.4459 14.278 20.2316C14.4733 20.0173 14.5831 19.7267 14.5831 19.4237C14.5831 19.1207 14.4733 18.83 14.278 18.6158C14.0826 18.4015 13.8177 18.2811 13.5414 18.2811ZM3.12479 9.14056H21.8747C22.151 9.14056 22.416 9.02018 22.6113 8.80591C22.8067 8.59164 22.9164 8.30102 22.9164 7.99799C22.9164 7.69496 22.8067 7.40435 22.6113 7.19007C22.416 6.9758 22.151 6.85542 21.8747 6.85542H3.12479C2.84853 6.85542 2.58357 6.9758 2.38823 7.19007C2.19288 7.40435 2.08313 7.69496 2.08313 7.99799C2.08313 8.30102 2.19288 8.59164 2.38823 8.80591C2.58357 9.02018 2.84853 9.14056 3.12479 9.14056ZM21.8747 12.5683H3.12479C2.84853 12.5683 2.58357 12.6887 2.38823 12.9029C2.19288 13.1172 2.08313 13.4078 2.08313 13.7108C2.08313 14.0139 2.19288 14.3045 2.38823 14.5188C2.58357 14.733 2.84853 14.8534 3.12479 14.8534H21.8747C22.151 14.8534 22.416 14.733 22.6113 14.5188C22.8067 14.3045 22.9164 14.0139 22.9164 13.7108C22.9164 13.4078 22.8067 13.1172 22.6113 12.9029C22.416 12.6887 22.151 12.5683 21.8747 12.5683Z" fill="black"/>
</svg>
